<svg xmlns="http://www.w3.org/2000/svg" xmlns:xlink="http://www.w3.org/1999/xlink" preserveAspectRatio="xMidYMid meet" version="1.0" viewBox="-0.5 -0.5 414.6 348.4" zoomAndPan="magnify" style="fill: rgb(0, 0, 0);" original_string_length="26275" width="881.5053172162097px" height="738.861729521223px"><g id="__id0_svq8j1tdta"><path d="M245.72455,257.1651L190.78754,4.44196c-0.31982-1.47168-1.19385-2.73096-2.46045-3.54541 s-2.7749-1.08789-4.24707-0.7666L4.44184,39.17926c-3.03809,0.66016-4.97217,3.66943-4.31201,6.70752l54.93701,252.72363 c0.31934,1.47168,1.19336,2.73047,2.46045,3.54492c0.92041,0.59277,1.96875,0.89746,3.03809,0.89746 c0.40186,0,0.80664-0.04297,1.20898-0.12988l179.6377-39.04883C244.45013,263.21295,246.3847,260.20319,245.72455,257.1651z" style="fill: rgb(150, 165, 212);"/></g><g id="__id1_svq8j1tdta"><path d="M179.54437 15.09137L179.45795 14.69245 15.09125 50.42194 14.69232 50.50837 66.30951 287.961 66.39594 288.36041 231.16205 252.54401z" style="fill: rgb(245, 250, 244);"/></g><g id="__id2_svq8j1tdta"><path d="M60.3291,74.88312c4.23431-5.53467,9.05713-10.53442,14.35785-14.84448 c0.43701-0.35547,0.50293-0.99707,0.14795-1.43408c-0.35596-0.43701-0.99756-0.50146-1.43408-0.14795 c-4.98987,4.05756-9.56067,8.71557-13.63354,13.84185l-0.2644-1.21637l-25.96729,5.64453l5.64453,25.96729l25.96729-5.64453 L60.3291,74.88312z M34.50726,77.35162l24.37061-5.29785l0.23212,1.06769c-4.23694,5.45813-7.9079,11.43628-10.90546,17.79364 l-4.72656-6.55762c-0.32959-0.45703-0.96631-0.56055-1.42334-0.23096c-0.45654,0.32959-0.56006,0.96631-0.23096,1.42334 l6.78174,9.40771l0.72363-1.61084c2.81873-6.27271,6.30853-12.1806,10.35223-17.59729l4.49445,20.67493l-24.37061,5.29785 L34.50726,77.35162z" style="fill: rgb(150, 165, 212);"/></g><g id="__id3_svq8j1tdta"><path d="M67.72241,108.89545c4.23425-5.53467,9.05719-10.53461,14.35809-14.84509 c0.43701-0.35547,0.50293-0.99756,0.14795-1.43408c-0.35596-0.4375-0.99756-0.50146-1.43408-0.14795 c-4.99005,4.05798-9.56091,8.71613-13.63379,13.84247l-0.32422-1.49139l-25.9668,5.64404l5.64404,25.96729l25.96729-5.64453 L67.72241,108.89545z M41.84125,111.08844l24.37012-5.29736l0.29193,1.34277c-4.23694,5.45825-7.90784,11.43628-10.90521,17.79346 l-4.72754-6.55762c-0.33008-0.45703-0.96729-0.56152-1.42285-0.23047c-0.45654,0.3291-0.56006,0.96631-0.23047,1.42285 l6.78174,9.40771l0.72363-1.61084c2.81854-6.27258,6.30829-12.18036,10.35199-17.59711l4.43463,20.39935l-24.37061,5.29785 L41.84125,111.08844z" style="fill: rgb(150, 165, 212);"/></g><g id="__id4_svq8j1tdta"><path d="M75.02106,142.47021c4.23419-5.53448,9.05701-10.5343,14.35779-14.84467 c0.43701-0.35547,0.50293-0.99756,0.14795-1.43408c-0.35498-0.43701-0.99756-0.50244-1.43408-0.14795 c-4.98993,4.05785-9.56067,8.71583-13.63342,13.84199l-0.28894-1.32928l-25.96729,5.64453l5.64453,25.96729l25.9668-5.64502 L75.02106,142.47021z M49.17474,144.82574l24.37061-5.29785l0.25665,1.18066c-4.23712,5.45837-7.90814,11.43658-10.90558,17.79395 l-4.72656-6.55811c-0.3291-0.45654-0.96582-0.56104-1.42334-0.23096c-0.45654,0.3291-0.56006,0.96631-0.23096,1.42334 l6.78174,9.4082l0.72363-1.61084c2.8186-6.27271,6.30841-12.18073,10.35229-17.5976l4.46948,20.56146l-24.37012,5.29785 L49.17474,144.82574z" style="fill: rgb(150, 165, 212);"/></g><g id="__id5_svq8j1tdta"><path d="M81.50385,172.29205l-25.96729,5.64551l5.64453,25.96777l25.96729-5.64551L81.50385,172.29205z M56.50824,178.56256l24.37061-5.29785l5.29785,24.37012l-24.37061,5.29785L56.50824,178.56256z" style="fill: rgb(150, 165, 212);"/></g><g id="__id6_svq8j1tdta"><path d="M88.83734,206.02936l-25.9668,5.64453l5.64404,25.96777l25.96729-5.64453L88.83734,206.02936z M63.84222,212.29889l24.37012-5.29688l5.29785,24.37012l-24.37061,5.29688L63.84222,212.29889z" style="fill: rgb(150, 165, 212);"/></g><g id="__id7_svq8j1tdta"><path d="M70.20404,245.41119l5.64453,25.96777l25.96729-5.64551l-5.64453-25.9668L70.20404,245.41119z M76.47357,270.40631l-5.29785-24.37012l24.37061-5.29688l5.29785,24.36914L76.47357,270.40631z" style="fill: rgb(150, 165, 212);"/></g><g id="__id8_svq8j1tdta"><path d="M69.50531,73.57184c0.02881,0.13281,0.14648,0.22363,0.27686,0.22363 c0.02002,0,0.04053-0.00244,0.06104-0.00684l99.73146-21.67968c0.15283-0.0332,0.25-0.18457,0.2168-0.33789 s-0.18359-0.24902-0.33789-0.2168L69.72211,73.23395C69.56927,73.26715,69.47211,73.41852,69.50531,73.57184z" style="fill: rgb(150, 165, 212);"/></g><g id="__id9_svq8j1tdta"><path d="M155.4975,63.58161c-0.0332-0.15332-0.18799-0.24854-0.3374-0.2168L71.2353,81.60797 c-0.15283,0.0332-0.25,0.18457-0.2168,0.33789c0.02881,0.13281,0.14648,0.22363,0.27686,0.22363 c0.02002,0,0.04053-0.00244,0.06104-0.00684L155.2807,63.9195C155.43353,63.8863,155.5307,63.73493,155.4975,63.58161z" style="fill: rgb(150, 165, 212);"/></g><g id="__id10_svq8j1tdta"><path d="M73.27582,90.6192c0.02881,0.13281,0.14648,0.22363,0.27686,0.22363 c0.02002,0,0.04053-0.00244,0.06104-0.00684l97.47656-21.18945c0.15283-0.0332,0.25-0.18457,0.2168-0.33789 c-0.03271-0.15283-0.18457-0.25-0.33789-0.2168L73.49261,90.28131C73.33978,90.31451,73.24261,90.46588,73.27582,90.6192z" style="fill: rgb(150, 165, 212);"/></g><g id="__id11_svq8j1tdta"><path d="M159.87347,89.25836c-0.0332-0.15332-0.18799-0.24902-0.3374-0.2168l-82.76562,17.99121 c-0.15332,0.0332-0.25049,0.18457-0.21729,0.33789c0.02881,0.13281,0.14648,0.22363,0.27686,0.22363 c0.02002,0,0.04053-0.00244,0.06055-0.00684l82.76562-17.99121C159.80951,89.56305,159.90668,89.41168,159.87347,89.25836z" style="fill: rgb(150, 165, 212);"/></g><g id="__id12_svq8j1tdta"><path d="M78.39301,115.95758c0.02002,0,0.04053-0.00244,0.06055-0.00684l69.64745-15.13965 c0.15332-0.0332,0.25049-0.18457,0.21729-0.33789c-0.0332-0.15283-0.18701-0.25049-0.3374-0.2168l-69.64746,15.13965 c-0.15332,0.0332-0.25049,0.18457-0.21729,0.33789C78.14496,115.86676,78.26263,115.95758,78.39301,115.95758z" style="fill: rgb(150, 165, 212);"/></g><g id="__id13_svq8j1tdta"><path d="M80.58978,124.6441c0.02002,0,0.04053-0.00244,0.06104-0.00684l80.89404-17.58496 c0.15332-0.0332,0.25049-0.18457,0.21729-0.33789s-0.18408-0.24854-0.33789-0.2168l-80.89404,17.58496 c-0.15332,0.0332-0.25049,0.18457-0.21729,0.33789C80.34174,124.55328,80.45941,124.6441,80.58978,124.6441z" style="fill: rgb(150, 165, 212);"/></g><g id="__id14_svq8j1tdta"><path d="M83.57562,141.17535c0.02881,0.13281,0.14648,0.22363,0.27686,0.22363 c0.02002,0,0.04053-0.00244,0.06055-0.00684l64.312-13.97998c0.15332-0.0332,0.25049-0.18457,0.21729-0.33789 c-0.0332-0.15283-0.18652-0.24707-0.3374-0.2168l-64.3125,13.97998C83.63959,140.87067,83.54242,141.02203,83.57562,141.17535z" style="fill: rgb(150, 165, 212);"/></g><g id="__id15_svq8j1tdta"><path d="M85.47015,149.75055c0.02002,0,0.04053-0.00244,0.06055-0.00684l54.11914-11.76416 c0.15283-0.0332,0.25-0.18457,0.2168-0.33789c-0.0332-0.15283-0.18652-0.25049-0.3374-0.2168l-54.11865,11.76416 c-0.15332,0.0332-0.25049,0.18457-0.21729,0.33789C85.22211,149.65973,85.33978,149.75055,85.47015,149.75055z" style="fill: rgb(150, 165, 212);"/></g><g id="__id16_svq8j1tdta"><path d="M87.60101,158.45074c0.02002,0,0.04053-0.00244,0.06055-0.00684l62.85791-13.66357 c0.15332-0.0332,0.25049-0.18457,0.21729-0.3374c-0.03271-0.15381-0.18457-0.25098-0.3374-0.21729l-62.85791,13.66357 c-0.15332,0.0332-0.25049,0.18457-0.21729,0.33789C87.35297,158.35992,87.47064,158.45074,87.60101,158.45074z" style="fill: rgb(150, 165, 212);"/></g><g id="__id17_svq8j1tdta"><path d="M91.10687,174.42682c0.02002,0,0.04053-0.00195,0.06055-0.00684l61.96533-13.46973 c0.15283-0.0332,0.25-0.18457,0.2168-0.33789s-0.18604-0.24805-0.3374-0.2168L91.04681,173.8653 c-0.15283,0.0332-0.25,0.18457-0.2168,0.33789C90.85883,174.336,90.9765,174.42682,91.10687,174.42682z" style="fill: rgb(150, 165, 212);"/></g><g id="__id18_svq8j1tdta"><path d="M93.14886,183.12604c0.02881,0.13281,0.14648,0.22363,0.27686,0.22363 c0.02002,0,0.04053-0.00195,0.06055-0.00684l96.4707-20.9707c0.15283-0.0332,0.25-0.18457,0.2168-0.33789 c-0.0332-0.15283-0.18652-0.25049-0.3374-0.2168l-96.47021,20.9707C93.21283,182.82135,93.11566,182.97272,93.14886,183.12604z" style="fill: rgb(150, 165, 212);"/></g><g id="__id19_svq8j1tdta"><path d="M163.67572,175.81549c-0.0332-0.15332-0.18262-0.25098-0.33789-0.2168l-68.49414,14.88965 c-0.15332,0.0332-0.25049,0.18457-0.21729,0.33789c0.02881,0.13281,0.14648,0.22363,0.27686,0.22363 c0.02002,0,0.04053-0.00195,0.06104-0.00684l68.49462-14.88965C163.61176,176.12018,163.70892,175.96881,163.67572,175.81549z" style="fill: rgb(150, 165, 212);"/></g><g id="__id20_svq8j1tdta"><path d="M98.66449,208.5899c0.02002,0,0.04053-0.00195,0.06104-0.00684l70.94872-15.42285 c0.15283-0.0332,0.25-0.18457,0.2168-0.33789c-0.03271-0.15332-0.18457-0.25293-0.3374-0.2168l-70.94873,15.42285 c-0.15332,0.0332-0.25049,0.18457-0.21729,0.33789C98.41644,208.49908,98.53412,208.5899,98.66449,208.5899z" style="fill: rgb(150, 165, 212);"/></g><g id="__id21_svq8j1tdta"><path d="M100.65472,217.13287c0.02002,0,0.04053-0.00195,0.06055-0.00684l85.13868-18.50684 c0.15283-0.0332,0.25-0.18457,0.2168-0.33789s-0.18408-0.25293-0.33789-0.2168l-85.13818,18.50684 c-0.15283,0.0332-0.25,0.18457-0.2168,0.33789C100.40668,217.04205,100.52435,217.13287,100.65472,217.13287z" style="fill: rgb(150, 165, 212);"/></g><g id="__id22_svq8j1tdta"><path d="M175.87054,208.91412c-0.0332-0.15332-0.18115-0.25293-0.33789-0.2168l-73.20166,15.91309 c-0.15283,0.0332-0.25,0.18457-0.2168,0.33789c0.02881,0.13281,0.14648,0.22363,0.27686,0.22363 c0.02002,0,0.04053-0.00195,0.06104-0.00684l73.20166-15.91309C175.80658,209.21881,175.90375,209.06744,175.87054,208.91412z" style="fill: rgb(150, 165, 212);"/></g><g id="__id23_svq8j1tdta"><path d="M182.72015,225.50787c-0.0332-0.15332-0.18604-0.25195-0.3374-0.2168l-76.34033,16.59473 c-0.15283,0.0332-0.25,0.18457-0.2168,0.33789c0.02881,0.13281,0.14648,0.22363,0.27686,0.22363 c0.02002,0,0.04053-0.00195,0.06055-0.00684l76.34032-16.59473C182.65619,225.81256,182.75336,225.66119,182.72015,225.50787z" style="fill: rgb(150, 165, 212);"/></g><g id="__id24_svq8j1tdta"><path d="M210.05756,228.79498l-101.7124,22.11035c-0.15332,0.0332-0.25049,0.18457-0.21729,0.33789 c0.02881,0.13281,0.14648,0.22363,0.27686,0.22363c0.02002,0,0.04053-0.00195,0.06055-0.00684l101.71338-22.11035 c0.15332-0.0332,0.25-0.18457,0.2168-0.33789S210.21381,228.7569,210.05756,228.79498z" style="fill: rgb(150, 165, 212);"/></g><g id="__id25_svq8j1tdta"><path d="M187.3056,241.46979l-77.57861,16.86426c-0.15283,0.0332-0.25,0.18457-0.2168,0.33789 c0.02881,0.13281,0.14648,0.22363,0.27686,0.22363c0.02002,0,0.04053-0.00195,0.06104-0.00684l77.57861-16.86426 c0.15283-0.0332,0.25-0.18457,0.2168-0.33789S187.46039,241.43561,187.3056,241.46979z" style="fill: rgb(150, 165, 212);"/></g><g id="__id26_svq8j1tdta"><path d="M145.61127,25.04303l-3.12158-14.3584c-0.50977-2.34619-1.90283-4.35303-3.92236-5.65186 c-2.01953-1.29736-4.42285-1.73242-6.77002-1.22217l-24.87988,5.4082c-2.94531-6.25977-9.91943-9.71826-16.71631-8.23975 C83.40472,2.4561,78.49554,8.49663,78.41449,15.4146l-24.87988,5.40869c-4.84277,1.05225-7.92676,5.84912-6.87402,10.69287 l3.12109,14.3584c0.91357,4.20264,4.646,7.08057,8.78223,7.08008c0.62988,0,1.27002-0.06689,1.91064-0.20605l78.2627-17.0127 C143.58002,34.68317,146.664,29.8863,145.61127,25.04303z" style="fill: rgb(171, 200, 233);"/></g><g id="__id27_svq8j1tdta"><circle cx="92.643" cy="12.211" r="6.508" style="fill: rgb(245, 250, 244);"/></g><g id="__id28_svq8j1tdta"><circle cx="297.731" cy="194.814" r="116.35" style="fill: rgb(171, 200, 233);"/></g><g id="__id29_svq8j1tdta"><ellipse cx="297.731" cy="194.815" rx="100.239" ry="100.238" transform="rotate(-8.888 297.74 194.82)" style="fill: rgb(245, 250, 244);"/></g><g id="__id30_svq8j1tdta"><circle cx="296.324" cy="115.578" r="4.22" style="fill: rgb(150, 165, 212);"/></g><g id="__id31_svq8j1tdta"><circle cx="296.324" cy="115.578" r="4.22" style="fill: rgb(150, 165, 212);"/></g><g id="__id32_svq8j1tdta"><circle cx="256.895" cy="126.897" r="4.22" style="fill: rgb(150, 165, 212);"/></g><g id="__id33_svq8j1tdta"><circle cx="228.407" cy="156.414" r="4.22" style="fill: rgb(150, 165, 212);"/></g><g id="__id34_svq8j1tdta"><circle cx="218.495" cy="196.221" r="4.22" style="fill: rgb(150, 165, 212);"/></g><g id="__id35_svq8j1tdta"><circle cx="229.814" cy="235.65" r="4.22" style="fill: rgb(150, 165, 212);"/></g><g id="__id36_svq8j1tdta"><circle cx="259.331" cy="264.138" r="4.22" style="fill: rgb(150, 165, 212);"/></g><g id="__id37_svq8j1tdta"><circle cx="299.137" cy="274.05" r="4.22" style="fill: rgb(150, 165, 212);"/></g><g id="__id38_svq8j1tdta"><circle cx="338.567" cy="262.731" r="4.22" style="fill: rgb(150, 165, 212);"/></g><g id="__id39_svq8j1tdta"><circle cx="367.054" cy="233.214" r="4.22" style="fill: rgb(150, 165, 212);"/></g><g id="__id40_svq8j1tdta"><circle cx="376.967" cy="193.408" r="4.22" style="fill: rgb(150, 165, 212);"/></g><g id="__id41_svq8j1tdta"><circle cx="365.648" cy="153.978" r="4.22" style="fill: rgb(150, 165, 212);"/></g><g id="__id42_svq8j1tdta"><circle cx="336.131" cy="125.491" r="4.22" style="fill: rgb(150, 165, 212);"/></g><g id="__id43_svq8j1tdta"><circle cx="299.801" cy="194.28" r="19.158" style="fill: rgb(171, 200, 233);"/></g><g id="__id44_svq8j1tdta"><path d="M299.42474,202.7735l-13.19434-13.19336c-0.94336-0.94336-0.94336-2.47363,0-3.41797 c0.94336-0.94336,2.47461-0.94336,3.41797,0l9.77637,9.77539l39.44824-39.44775c0.94336-0.94336,2.47461-0.94336,3.41797,0 c0.94336,0.94385,0.94336,2.47412,0,3.41797L299.42474,202.7735z" style="fill: rgb(150, 165, 212);"/></g><g id="__id45_svq8j1tdta"><path d="M178.21352,96.80447c-1.82388,0-3.57005,0.36021-5.1819,1.0183 c-1.82323,0.74438-3.74663,1.24975-5.71541,1.20338c-0.63541-0.01496-1.2888,0.0402-1.95534,0.17654 c-3.74271,0.76562-6.65462,3.94905-7.03015,7.75076c-0.4028,4.07765,1.97354,7.65306,5.45775,9.07208 c1.37939,7.27484,7.31311,12.74541,14.42505,12.74541c8.13416,0,14.72815-7.15594,14.72815-15.98327 C192.94167,103.96041,186.34767,96.80447,178.21352,96.80447z" style="fill: rgb(35, 31, 32);"/></g><g id="__id46_svq8j1tdta"><path d="M186.14935,125.84009c-1.91467-1.01837-2.55579-3.32159-1.67798-5.15131 c1.72345-0.90509,2.90051-2.70953,2.90051-4.79126c0-2.98859-2.42273-5.41132-5.41132-5.41132s-5.41138,2.42273-5.41138,5.41132 c0,0.10333,0.0097,0.20422,0.01544,0.30615l-0.18079,0.14258h-0.00006c-2.56421,0.6698-4.87061-1.7298-4.09961-4.2652 l0.47894-1.57489c-0.4613-4.02118-2.93579-5.664-7.46643-4.87781l-0.50226,0.52869 c-1.60803,1.69269-2.48944,3.94751-2.45557,6.28192l0.05792,3.98932l-3.22162,3.85352 c-0.72559,0.86792-0.35437,2.19366,0.71649,2.55865l1.9082,0.65039l1.44836,7.14758c0.41364,2.04156,2.3504,3.4043,4.41193,3.10431 l3.44269-0.50098l1.70013,3.50665l14.56891-6.6911l-0.6626-1.92871L186.14935,125.84009z" style="fill: rgb(248, 182, 191);"/></g><g id="__id47_svq8j1tdta"><path d="M134.08008,187.77577l-18.41554-1.1256c-0.44959-0.02748-0.89985,0.04152-1.32057,0.20238l-17.89674,6.84351 c-0.50201,0.19202-0.93853,0.54364-1.2523,1.00877l-2.89011,4.28406c-0.11754,0.1743-0.00625,0.41969,0.19324,0.42589 c1.01279,0.03125,1.99135-0.39815,2.69749-1.18382l2.95312-3.28558l-2.21692,3.77994 c-0.37408,0.63788,0.03259,1.47411,0.73063,1.50246l3.38122,0.13712c0.79853,0.03238,1.5667-0.33267,2.0845-0.99069l1.39742-1.77559 c0.61639-0.78323,1.55853-1.17442,2.5014-1.03856l5.60258,0.80742c1.59117,0.22928,3.15839-0.57368,4.00195-2.05037l1.66595-2.9164 l16.78275,3.94669" style="fill: rgb(248, 182, 191);"/></g><g id="__id48_svq8j1tdta"><path d="M167.3243,152.80951l-15.0136,26.037c-1.1414,1.97945-3.30159,3.28601-5.72104,3.4603l-28.45514,2.04961 l-0.6462,13.70306l35.07481,1.24757c2.99013,0.10637,5.83028-1.24284,7.48064-3.55367l25.0107-35.01971l0.64107-8.17297 c0.23662-3.0168-2.18074-5.64236-5.44507-5.91406l-0.51741-0.04306C174.63132,146.17896,169.73586,148.6273,167.3243,152.80951z" style="fill: rgb(171, 200, 233);"/></g><g id="__id49_svq8j1tdta"><path d="M219.03137,331.56537l-18.97005-76.24857c6.88852-4.90466,11.63744-12.49725,12.60316-21.25404 l5.73087-51.96579c1.18797-10.77194-7.02333-20.36447-18.13408-21.18456l-15.85429-1.17015l-19.95178,50.24057l-46.87217,26.29871 l3.64101,22.09511c-0.03551-0.008-0.06695-0.0239-0.10303-0.03064l-6.58611-1.23376 c-1.65716-0.31042-3.2436,0.80859-3.50713,2.47388l-11.89732,75.17587c-0.28755,1.81683,1.11655,3.46066,2.95605,3.46066h0.60396 c1.38194,0,2.58418-0.94623,2.90902-2.28946l17.22009-71.21521l32.62994-1.93625l17.32698,82.46002 c0.32478,1.54575,1.52708,2.63461,2.90901,2.63461h0.60396c1.83946,0,3.24361-1.89166,2.95605-3.98245l-11.2574-81.85623 l15.54605-0.92252c1.84544-0.1095,3.64722-0.37714,5.39352-0.78421l23.81592,73.26645 c0.4883,1.50214,1.80014,2.45612,3.17413,2.30829l0.60051-0.06458C218.34717,335.64432,219.54089,333.61337,219.03137,331.56537z" style="fill: rgb(245, 250, 244);"/></g><g id="__id50_svq8j1tdta"><path d="M219.03137,331.56537l-18.97005-76.24857c6.88852-4.90466,11.63744-12.49725,12.60316-21.25404 l5.73087-51.96579c1.18797-10.77194-7.02333-20.36447-18.13408-21.18456l-15.85429-1.17015l-19.95178,50.24057l-46.87217,26.29871 l3.64101,22.09511c-0.03551-0.008-0.06695-0.0239-0.10303-0.03064l-6.58611-1.23376 c-1.65716-0.31042-3.2436,0.80859-3.50713,2.47388l-11.89732,75.17587c-0.28755,1.81683,1.11655,3.46066,2.95605,3.46066h0.60396 c1.38194,0,2.58418-0.94623,2.90902-2.28946l17.22009-71.21521l32.62994-1.93625l17.32698,82.46002 c0.32478,1.54575,1.52708,2.63461,2.90901,2.63461h0.60396c1.83946,0,3.24361-1.89166,2.95605-3.98245l-11.2574-81.85623 l15.54605-0.92252c1.84544-0.1095,3.64722-0.37714,5.39352-0.78421l23.81592,73.26645 c0.4883,1.50214,1.80014,2.45612,3.17413,2.30829l0.60051-0.06458C218.34717,335.64432,219.54089,333.61337,219.03137,331.56537z" style="fill: rgb(150, 165, 212);"/></g><g id="__id51_svq8j1tdta"><path d="M219.03137,331.56537l-18.97005-76.24857 c6.88852-4.90466,11.63744-12.49725,12.60316-21.25404l5.73087-51.96579c1.18797-10.77194-7.02333-20.36447-18.13408-21.18456 l-15.85429-1.17015l-19.95178,50.24057l-46.87217,26.29871l3.64101,22.09511c-0.03551-0.008-0.06695-0.0239-0.10303-0.03064 l-6.58611-1.23376c-1.65716-0.31042-3.2436,0.80859-3.50713,2.47388l-11.89732,75.17587 c-0.28755,1.81683,1.11655,3.46066,2.95605,3.46066h0.60396c1.38194,0,2.58418-0.94623,2.90902-2.28946l17.22009-71.21521 l32.62994-1.93625l17.32698,82.46002c0.32478,1.54575,1.52708,2.63461,2.90901,2.63461h0.60396 c1.83946,0,3.24361-1.89166,2.95605-3.98245l-11.2574-81.85623l15.54605-0.92252c1.84544-0.1095,3.64722-0.37714,5.39352-0.78421 l23.81592,73.26645c0.4883,1.50214,1.80014,2.45612,3.17413,2.30829l0.60051-0.06458 C218.34717,335.64432,219.54089,333.61337,219.03137,331.56537z" opacity=".3" style="fill: rgb(35, 31, 32);"/></g><g id="__id52_svq8j1tdta"><path d="M136.77834 329.84982L135.76724 308.5072 121.01337 307.76929 125.38365 334.2605z" style="fill: rgb(248, 182, 191);"/></g><g id="__id53_svq8j1tdta"><path d="M102.25644,336.27158c0.18616-0.12152,0.38866-0.22028,0.61044-0.30365l6.83158-2.54205 c4.45309-1.65222,8.50909-4.13193,11.95922-7.30121l0.74651-0.69247c1.10418-1.00714,2.92054-0.63022,3.55746,0.73416 l2.41104,5.19943l5.22145-5.27979c1.56639-1.58145,4.22528-1.46332,5.71529,0.2597l0.11125,0.1243 c1.10695,1.28214,1.97681,2.73312,2.57501,4.29034l1.13519,2.96741l1.07376,2.82016c0.97301,2.534-0.69849,5.24539-3.42885,5.56494 l-15.14784,1.76297c-5.77502,3.13388-11.42822,3.2869-16.97563,0.92572c-0.78046-0.33163-1.61581-0.49304-2.45202-0.62982 c-0.48687-0.0733-0.96191-0.2002-1.41359-0.36816c-1.47854-0.54977-2.76112-1.58215-3.60172-2.9559 C100.19283,339.23511,100.7193,337.21719,102.25644,336.27158z" style="fill: rgb(171, 200, 233);"/></g><g id="__id54_svq8j1tdta"><path d="M102.25644,336.27158l2.08816,1.92059c2.83405,2.61246,6.6277,3.91528,10.46686,3.60172l7.76196-0.62912 c1.9678-0.16373,3.88267-0.72018,5.62547-1.63913l8.4335-4.44196c1.99809-1.04782,4.24695-1.52158,6.49852-1.35593l1.07376,2.82016 c0.97301,2.534-0.69849,5.24539-3.42885,5.56494l-15.14784,1.76297c-5.77502,3.13388-11.42822,3.2869-16.97563,0.92572 c-0.78046-0.33163-1.61581-0.49304-2.45202-0.62982c-0.48687-0.0733-0.96191-0.2002-1.41359-0.36816 c-1.47854-0.54977-2.76112-1.58215-3.60172-2.9559C100.19283,339.23511,100.7193,337.21719,102.25644,336.27158z" style="fill: rgb(35, 31, 32);"/></g><g id="__id55_svq8j1tdta"><path d="M185.62445,226.68042l-3.69604-27.21649l-17.28156,1.94702l-19.27539-2.0481l-2.1355,10.22723 l-44.6571,18.21729c-8.73816,3.56641-15.54419,10.68488-18.71838,19.5683l-16.7428,46.82886 c-1.5033,4.21802,0.37341,8.75671,4.1178,10.80286l-3.65027,11.65674c-0.46094-0.21863-0.99707-0.28552-1.5321-0.13599 l-0.97827,0.28223c-4.50757,1.27686-9.24561,1.66504-13.9657,1.13574l-7.24451-0.80566 c-0.2356-0.02539-0.46094-0.02832-0.68188-0.00366c-1.79822,0.15247-3.17676,1.71729-3.01672,3.60376 c0.1322,1.60522,0.81262,3.10449,1.88538,4.26099c0.32764,0.35327,0.69482,0.68042,1.09644,0.96509 c0.68518,0.49854,1.3584,1.0188,1.90601,1.66626c3.89062,4.60571,9.00732,7.01404,15.57495,6.81555l14.3197,5.245 c2.58191,0.94385,5.29504-0.72485,5.56702-3.42554l0.31079-3.00146l0.32214-3.16089c0.16687-1.65979,0.04333-3.34705-0.3678-4.99023 l-0.04346-0.16113c-0.27148-1.08081-0.96704-1.94226-1.85254-2.45996l6.09277-13.65674l0.88782,0.22852 c4.15479,1.07507,8.47668-0.98047,10.30713-4.8739c5.71606-12.15131,8.91943-25.55176,9.62421-40.17963l10.51276,40.67212 c0.66418,2.56964,2.9823,4.36475,5.63641,4.36475h18.04443c3.51105,0,6.23737-3.08826,5.77893-6.56927 c-2.02734-15.39423-6.69073-29.57715-15.3183-41.9386c-1.45062-2.07843,0.10242-4.93732,2.63647-4.88092 c13.13489,0.29236,25.43134-0.29761,36.61633-2.05707C178.40234,251.60577,187.35431,239.4184,185.62445,226.68042z" style="fill: rgb(171, 200, 233);"/></g><g id="__id56_svq8j1tdta"><path d="M72.89961 326.94382L81.60484 307.43106 68.76276 300.13019 60.73927 325.75259z" style="fill: rgb(248, 182, 191);"/></g><g id="__id57_svq8j1tdta"><path d="M39.18279,317.1369c0.22092-0.02469,0.44622-0.02173,0.68177,0.00366l7.24455,0.80557 c4.72013,0.52939,9.4582,0.14108,13.9657-1.13571l0.97834-0.28226c1.43935-0.40222,2.89156,0.75204,2.84607,2.25708 l-0.18779,5.72818l7.0393-2.36392c2.11063-0.70697,4.43166,0.59549,4.98647,2.80484l0.04339,0.16107 c0.41123,1.64319,0.53477,3.33041,0.36787,4.99023l-0.3222,3.16074l-0.31079,3.00162 c-0.27193,2.70071-2.98509,4.36935-5.56699,3.42554l-14.31971-5.24509c-6.56755,0.19855-11.68439-2.20978-15.57491-6.81552 c-0.5476-0.64749-1.22087-1.16766-1.90596-1.66626c-0.40175-0.28464-0.7688-0.61179-1.09652-0.96509 c-1.07274-1.15652-1.75325-2.65579-1.88541-4.26086C36.00598,318.85416,37.38451,317.28928,39.18279,317.1369z" style="fill: rgb(171, 200, 233);"/></g><g id="__id58_svq8j1tdta"><path d="M39.18279,317.1369l0.99998,2.655c1.35453,3.60861,4.15551,6.4798,7.7248,7.92813l7.21416,2.9325 c1.83083,0.73969,3.79119,1.10486,5.76109,1.06888l9.53027-0.16977c2.25588-0.03616,4.47725,0.55322,6.41319,1.71475 l-0.31079,3.00162c-0.27193,2.70071-2.98509,4.36935-5.56699,3.42554l-14.31971-5.24509 c-6.56755,0.19855-11.68439-2.20978-15.57491-6.81552c-0.5476-0.64749-1.22087-1.16766-1.90596-1.66626 c-0.40175-0.28464-0.7688-0.61179-1.09652-0.96509c-1.07274-1.15652-1.75325-2.65579-1.88541-4.26086 C36.00598,318.85416,37.38451,317.28928,39.18279,317.1369z" style="fill: rgb(35, 31, 32);"/></g><g id="__id59_svq8j1tdta"><path d="M193.99054,142.35669l-4.10095-11.14954c-0.51782-1.40784-2.09003-2.11694-3.4881-1.57324l-13.25806,5.65723 c-2.07129,0.88379-3.41522,2.9184-3.41522,5.17035v1.61432c-6.86401,0.98932-12.70856,5.37561-14.48639,11.2204l-6.77393,28.62714 c-0.59845,0.20172-1.22754,0.33655-1.87823,0.38342l-28.45514,2.04962l-0.64618,13.70306l25.86414,0.91998l-0.07544,1.08966 l0.87946,0.07434l-1.45654,6.1554c-1.11511,4.71246,0.39227,9.47217,4.09033,12.91559l4.16925,3.8822 c7.59436,7.07135,17.42163,12.07611,28.33203,14.58875c8.54462,1.96783,16.94171-3.84314,18.23193-12.51593l10.0816-67.76862 C208.72601,149.86566,202.65063,143.35571,193.99054,142.35669z" style="fill: rgb(150, 165, 212);"/></g><g id="__id60_svq8j1tdta"><path d="M148.47131,181.92328l-0.75,3.16003l-3.41998,0.14996l-0.94,13.73999l-25.87-0.90997 l0.63995-13.71002l28.46001-2.04999C147.24133,182.26331,147.87128,182.1333,148.47131,181.92328z" opacity=".3" style="fill: rgb(35, 31, 32);"/></g><g id="__id61_svq8j1tdta"><path d="M190.05406,152.91466l-14.48975,27.65495c-1.10158,2.10246-3.10818,3.43645-5.31429,3.53293 l-25.94597,1.13472l-1.02702,14.83183l31.86093,2.69301c2.71614,0.22957,5.34253-1.12466,6.91763-3.56693l12.45595-16.15411 c6.65524-8.6312,10.88721-18.8817,12.25932-29.69406v-0.00002c0.31194-3.2617-1.80251-6.20067-4.76276-6.61998l-0.46921-0.06645 C196.91246,146.00522,192.38148,148.47256,190.05406,152.91466z" opacity=".3" style="fill: rgb(35, 31, 32);"/></g><g id="__id62_svq8j1tdta"><path d="M264.05655,206.30486H10.19408c-1.67334,0-3.02982,1.35648-3.02982,3.02977v3.13304 c0,1.67329,1.35648,3.02977,3.02982,3.02977h10.76499v128.04333h5.91734V215.49744h219.26157v128.04333h5.91734V215.49744h12.00124 c1.67334,0,3.02982-1.35648,3.02982-3.02977v-3.13304C267.08636,207.66133,265.72989,206.30486,264.05655,206.30486z" style="fill: rgb(245, 250, 244);"/></g><g id="__id63_svq8j1tdta"><path d="M264.05655,206.30486H10.19408c-1.67334,0-3.02982,1.35648-3.02982,3.02977v3.13304 c0,1.67329,1.35648,3.02977,3.02982,3.02977h10.76499v128.04333h5.91734V215.49744h219.26157v128.04333h5.91734V215.49744h12.00124 c1.67334,0,3.02982-1.35648,3.02982-3.02977v-3.13304C267.08636,207.66133,265.72989,206.30486,264.05655,206.30486z" opacity=".3" style="fill: rgb(35, 31, 32);"/></g><g id="__id64_svq8j1tdta"><path d="M148.24762,202.30008h-37.24609l-11.94714-32.95709c-0.75439-2.08112-3.0531-3.76819-5.13422-3.76819 h-47.2063c-2.08112,0-3.15662,1.68707-2.40216,3.76819l12.03284,33.19366c0.75446,2.08112,3.0531,3.76819,5.13422,3.76819h41.66431 h5.54199h42.34125c0.31683,0,0.57361-0.25677,0.57361-0.57361v-0.0788C151.59991,203.80099,150.09906,202.30008,148.24762,202.30008 z" style="fill: rgb(35, 31, 32);"/></g><g id="__id65_svq8j1tdta"><ellipse cx="77.7" cy="185.94" rx="4.572" ry="6.557" transform="rotate(-50.137 77.7 185.94)" style="fill: rgb(245, 250, 244);"/></g><g id="__id66_svq8j1tdta"><path d="M149.7713,215.49329c-1.14001,1.78998-2.81,3.20001-4.79999,4.01001l-34.15002,13.89996 c-2.51996,0.87006-4.71997,2.25-6.52997,3.99005c-0.16003,0.14996-0.32001,0.31-0.48004,0.47998 c-0.00995,0.01001-0.00995,0.01001-0.00995,0.01001c-0.31,0.32001-0.61005,0.65997-0.90002,1.01001 c-1.02002,1.22998-1.85999,2.58997-2.51001,4.02997c-0.19,0.41003-0.35999,0.83002-0.5,1.25 c-0.08002,0.21002-0.15997,0.42999-0.21997,0.64001c-0.21002,0.60999-0.37,1.23999-0.48999,1.87 c-0.02002,0.08002-0.04004,0.15997-0.05005,0.22998c-0.27997,1.44-0.38,2.92004-0.27997,4.42004c0,0.00995,0,0.00995,0,0.00995 c0.07001,1.12006,0.25,2.23004,0.52997,3.35004l2.15002,8.29999l0.27002,1.02002c-0.71002,14.63-3.91003,28.02997-9.63,40.17999 c-1.83002,3.89001-6.15002,5.95001-10.31,4.87l-0.88-0.22998l-6.10004,13.65997c0.89001,0.52002,1.58002,1.38,1.86005,2.46002 l0.03998,0.15997c0.40997,1.65002,0.52997,3.33002,0.37,4.98999l-0.33002,3.16003l-0.31,3 c-0.26996,2.70996-2.97998,4.37-5.56,3.42999l-14.32001-5.23999c-6.57001,0.19-11.69-2.21002-15.57996-6.82001 c-0.55005-0.65002-1.22003-1.16998-1.90002-1.66998c-0.40997-0.28003-0.77002-0.61005-1.09998-0.96002 c-1.07001-1.16003-1.75-2.66003-1.89001-4.26001c-0.16003-1.89001,1.21997-3.45001,3.02002-3.60999 c0.21997-0.02002,0.44995-0.02002,0.67999,0.01001l7.25,0.79999c4.71997,0.52997,9.45996,0.14001,13.95996-1.13l0.98004-0.28998 c0.53998-0.14001,1.06995-0.08002,1.52997,0.13995l3.65002-11.65997c-3.73999-2.03998-5.62-6.58002-4.11005-10.79999 l16.74005-46.83002c3.16998-8.88,9.97998-16,18.71997-19.57001l30.17999-12.31H149.7713z" opacity=".3" style="fill: rgb(35, 31, 32);"/></g><g id="__id67_svq8j1tdta"><path d="M144.1413,187.59326l-0.45001,6.5l-2.06-0.47998l-1.82001,3.17999 c-0.91998,1.60999-2.62994,2.48004-4.37,2.23004l-6.10999-0.88c-1.02997-0.14001-2.04999,0.27997-2.72998,1.13995l-1.52002,1.93005 c-0.57001,0.71997-1.39996,1.12-2.27997,1.07996l-3.68005-0.14001c-0.76996-0.03998-1.20996-0.94995-0.79999-1.63995l2.42004-4.13 l-3.23004,3.58997c-0.76996,0.85004-1.82996,1.32001-2.94,1.29004c-0.21997-0.01001-0.33997-0.28003-0.20996-0.47003 l3.14996-4.66998c0.35004-0.51001,0.82001-0.89001,1.37-1.09998l19.53003-7.47003c0.45996-0.16998,0.95001-0.25,1.44-0.21997 L144.1413,187.59326z" style="fill: rgb(248, 182, 191);"/></g></svg>